<mxfile host="Electron" modified="2025-01-20T21:51:37.464Z" agent="Mozilla/5.0 (Windows NT 10.0; Win64; x64) AppleWebKit/537.36 (KHTML, like Gecko) draw.io/21.6.1 Chrome/112.0.5615.204 Electron/24.6.1 Safari/537.36" etag="WEYH_FyXNIHuG02E94lh" version="21.6.1" type="device">
  <diagram name="Page-1" id="JyyjUiMfEBk-dc2TTWM5">
    <mxGraphModel dx="2524" dy="1936" grid="1" gridSize="10" guides="1" tooltips="1" connect="1" arrows="1" fold="1" page="1" pageScale="1" pageWidth="850" pageHeight="1100" math="0" shadow="0">
      <root>
        <mxCell id="0" />
        <mxCell id="1" parent="0" />
        <mxCell id="4U-bfrUDjUq5PcVRqzK_-1" value="" style="rounded=0;whiteSpace=wrap;html=1;" parent="1" vertex="1">
          <mxGeometry x="-120" y="-100" width="240" height="450" as="geometry" />
        </mxCell>
        <mxCell id="4U-bfrUDjUq5PcVRqzK_-2" value="Header" style="text;html=1;strokeColor=none;fillColor=none;align=center;verticalAlign=middle;whiteSpace=wrap;rounded=0;" parent="1" vertex="1">
          <mxGeometry x="-180" y="-80" width="60" height="30" as="geometry" />
        </mxCell>
        <mxCell id="4U-bfrUDjUq5PcVRqzK_-3" value="" style="rounded=0;whiteSpace=wrap;html=1;" parent="1" vertex="1">
          <mxGeometry x="-120" y="350" width="240" height="350" as="geometry" />
        </mxCell>
        <mxCell id="4U-bfrUDjUq5PcVRqzK_-4" value="" style="rounded=0;whiteSpace=wrap;html=1;" parent="1" vertex="1">
          <mxGeometry x="-110" y="-90" width="220" height="270" as="geometry" />
        </mxCell>
        <mxCell id="4U-bfrUDjUq5PcVRqzK_-5" value="Header Data" style="text;html=1;strokeColor=none;fillColor=none;align=center;verticalAlign=middle;whiteSpace=wrap;rounded=0;" parent="1" vertex="1">
          <mxGeometry x="-110" y="-85" width="90" height="30" as="geometry" />
        </mxCell>
        <mxCell id="4U-bfrUDjUq5PcVRqzK_-6" value="Type[0]" style="rounded=0;whiteSpace=wrap;html=1;" parent="1" vertex="1">
          <mxGeometry x="-20" y="-80" width="120" height="20" as="geometry" />
        </mxCell>
        <mxCell id="4U-bfrUDjUq5PcVRqzK_-7" value="Length[0]" style="rounded=0;whiteSpace=wrap;html=1;" parent="1" vertex="1">
          <mxGeometry x="-20" y="-60" width="120" height="20" as="geometry" />
        </mxCell>
        <mxCell id="4U-bfrUDjUq5PcVRqzK_-8" value="Value[0]" style="rounded=0;whiteSpace=wrap;html=1;" parent="1" vertex="1">
          <mxGeometry x="-20" y="-40" width="120" height="20" as="geometry" />
        </mxCell>
        <mxCell id="4U-bfrUDjUq5PcVRqzK_-9" value="Type[1]" style="rounded=0;whiteSpace=wrap;html=1;" parent="1" vertex="1">
          <mxGeometry x="-20" y="-20" width="120" height="20" as="geometry" />
        </mxCell>
        <mxCell id="4U-bfrUDjUq5PcVRqzK_-10" value="Length[1]" style="rounded=0;whiteSpace=wrap;html=1;" parent="1" vertex="1">
          <mxGeometry x="-20" width="120" height="20" as="geometry" />
        </mxCell>
        <mxCell id="4U-bfrUDjUq5PcVRqzK_-11" value="Value[1]" style="rounded=0;whiteSpace=wrap;html=1;" parent="1" vertex="1">
          <mxGeometry x="-20" y="20" width="120" height="20" as="geometry" />
        </mxCell>
        <mxCell id="4U-bfrUDjUq5PcVRqzK_-12" value="" style="rounded=0;whiteSpace=wrap;html=1;" parent="1" vertex="1">
          <mxGeometry x="-110" y="190" width="220" height="150" as="geometry" />
        </mxCell>
        <mxCell id="4U-bfrUDjUq5PcVRqzK_-13" value="Extra unused header space - padded with 0" style="text;html=1;strokeColor=none;fillColor=none;align=center;verticalAlign=middle;whiteSpace=wrap;rounded=0;" parent="1" vertex="1">
          <mxGeometry x="-110" y="190" width="130" height="50" as="geometry" />
        </mxCell>
        <mxCell id="4U-bfrUDjUq5PcVRqzK_-14" value="MAX_HEADER_SIZE = 124 bytes" style="text;html=1;strokeColor=none;fillColor=none;align=center;verticalAlign=middle;whiteSpace=wrap;rounded=0;" parent="1" vertex="1">
          <mxGeometry x="140" y="65" width="230" height="30" as="geometry" />
        </mxCell>
        <mxCell id="4U-bfrUDjUq5PcVRqzK_-17" value="CRC32 of the header" style="rounded=0;whiteSpace=wrap;html=1;" parent="1" vertex="1">
          <mxGeometry x="-120" y="-130" width="240" height="30" as="geometry" />
        </mxCell>
        <mxCell id="4U-bfrUDjUq5PcVRqzK_-18" value="0x805000" style="text;html=1;strokeColor=none;fillColor=none;align=center;verticalAlign=middle;whiteSpace=wrap;rounded=0;" parent="1" vertex="1">
          <mxGeometry x="-280" y="-150" width="60" height="30" as="geometry" />
        </mxCell>
        <mxCell id="4U-bfrUDjUq5PcVRqzK_-19" value="" style="endArrow=none;dashed=1;html=1;dashPattern=1 3;strokeWidth=2;rounded=0;exitX=0;exitY=0;exitDx=0;exitDy=0;entryX=1;entryY=0.5;entryDx=0;entryDy=0;" parent="1" source="4U-bfrUDjUq5PcVRqzK_-17" target="4U-bfrUDjUq5PcVRqzK_-18" edge="1">
          <mxGeometry width="50" height="50" relative="1" as="geometry">
            <mxPoint x="50" y="250" as="sourcePoint" />
            <mxPoint x="-380" as="targetPoint" />
          </mxGeometry>
        </mxCell>
        <mxCell id="4U-bfrUDjUq5PcVRqzK_-20" value="0x805004" style="text;html=1;strokeColor=none;fillColor=none;align=center;verticalAlign=middle;whiteSpace=wrap;rounded=0;" parent="1" vertex="1">
          <mxGeometry x="-280" y="-115" width="60" height="30" as="geometry" />
        </mxCell>
        <mxCell id="4U-bfrUDjUq5PcVRqzK_-21" value="" style="endArrow=none;dashed=1;html=1;dashPattern=1 3;strokeWidth=2;rounded=0;entryX=0;entryY=0;entryDx=0;entryDy=0;exitX=1;exitY=0.5;exitDx=0;exitDy=0;" parent="1" source="4U-bfrUDjUq5PcVRqzK_-20" target="4U-bfrUDjUq5PcVRqzK_-1" edge="1">
          <mxGeometry width="50" height="50" relative="1" as="geometry">
            <mxPoint x="50" y="250" as="sourcePoint" />
            <mxPoint x="100" y="200" as="targetPoint" />
          </mxGeometry>
        </mxCell>
        <mxCell id="4U-bfrUDjUq5PcVRqzK_-22" value="0x805080" style="text;html=1;strokeColor=none;fillColor=none;align=center;verticalAlign=middle;whiteSpace=wrap;rounded=0;" parent="1" vertex="1">
          <mxGeometry x="-290" y="330" width="60" height="30" as="geometry" />
        </mxCell>
        <mxCell id="4U-bfrUDjUq5PcVRqzK_-23" value="" style="endArrow=none;dashed=1;html=1;dashPattern=1 3;strokeWidth=2;rounded=0;exitX=1;exitY=0.5;exitDx=0;exitDy=0;entryX=0;entryY=1;entryDx=0;entryDy=0;" parent="1" source="4U-bfrUDjUq5PcVRqzK_-22" target="4U-bfrUDjUq5PcVRqzK_-1" edge="1">
          <mxGeometry width="50" height="50" relative="1" as="geometry">
            <mxPoint x="50" y="250" as="sourcePoint" />
            <mxPoint x="100" y="200" as="targetPoint" />
          </mxGeometry>
        </mxCell>
        <mxCell id="4U-bfrUDjUq5PcVRqzK_-24" value="" style="rounded=0;whiteSpace=wrap;html=1;" parent="1" vertex="1">
          <mxGeometry x="-110" y="370" width="220" height="160" as="geometry" />
        </mxCell>
        <mxCell id="4U-bfrUDjUq5PcVRqzK_-25" value="IVT" style="text;html=1;strokeColor=none;fillColor=none;align=center;verticalAlign=middle;whiteSpace=wrap;rounded=0;" parent="1" vertex="1">
          <mxGeometry x="-110" y="380" width="90" height="30" as="geometry" />
        </mxCell>
        <mxCell id="4U-bfrUDjUq5PcVRqzK_-26" value="Reset" style="rounded=0;whiteSpace=wrap;html=1;" parent="1" vertex="1">
          <mxGeometry x="-20" y="380" width="120" height="20" as="geometry" />
        </mxCell>
        <mxCell id="4U-bfrUDjUq5PcVRqzK_-27" value="Interrupt[0]" style="rounded=0;whiteSpace=wrap;html=1;" parent="1" vertex="1">
          <mxGeometry x="-20" y="400" width="120" height="20" as="geometry" />
        </mxCell>
        <mxCell id="4U-bfrUDjUq5PcVRqzK_-28" value="Interrupt[1]" style="rounded=0;whiteSpace=wrap;html=1;" parent="1" vertex="1">
          <mxGeometry x="-20" y="420" width="120" height="20" as="geometry" />
        </mxCell>
        <mxCell id="4U-bfrUDjUq5PcVRqzK_-29" value="Interrupt[2]" style="rounded=0;whiteSpace=wrap;html=1;" parent="1" vertex="1">
          <mxGeometry x="-20" y="440" width="120" height="20" as="geometry" />
        </mxCell>
        <mxCell id="4U-bfrUDjUq5PcVRqzK_-30" value="Interrupt[3]" style="rounded=0;whiteSpace=wrap;html=1;" parent="1" vertex="1">
          <mxGeometry x="-20" y="460" width="120" height="20" as="geometry" />
        </mxCell>
        <mxCell id="4U-bfrUDjUq5PcVRqzK_-31" value="..." style="rounded=0;whiteSpace=wrap;html=1;" parent="1" vertex="1">
          <mxGeometry x="-20" y="480" width="120" height="20" as="geometry" />
        </mxCell>
        <mxCell id="4U-bfrUDjUq5PcVRqzK_-32" value="Code" style="rounded=0;whiteSpace=wrap;html=1;" parent="1" vertex="1">
          <mxGeometry x="-110" y="540" width="220" height="150" as="geometry" />
        </mxCell>
        <mxCell id="4U-bfrUDjUq5PcVRqzK_-33" value="" style="shape=curlyBracket;whiteSpace=wrap;html=1;rounded=1;flipH=1;labelPosition=right;verticalLabelPosition=middle;align=left;verticalAlign=middle;size=0.5;" parent="1" vertex="1">
          <mxGeometry x="130" y="-100" width="20" height="450" as="geometry" />
        </mxCell>
        <mxCell id="4U-bfrUDjUq5PcVRqzK_-34" value="0x806080" style="text;html=1;strokeColor=none;fillColor=none;align=center;verticalAlign=middle;whiteSpace=wrap;rounded=0;" parent="1" vertex="1">
          <mxGeometry x="-290" y="530" width="60" height="30" as="geometry" />
        </mxCell>
        <mxCell id="4U-bfrUDjUq5PcVRqzK_-35" value="" style="endArrow=none;dashed=1;html=1;dashPattern=1 3;strokeWidth=2;rounded=0;exitX=1;exitY=0.5;exitDx=0;exitDy=0;entryX=-0.001;entryY=0.045;entryDx=0;entryDy=0;entryPerimeter=0;" parent="1" source="4U-bfrUDjUq5PcVRqzK_-34" target="4U-bfrUDjUq5PcVRqzK_-32" edge="1">
          <mxGeometry width="50" height="50" relative="1" as="geometry">
            <mxPoint x="-230" y="395" as="sourcePoint" />
            <mxPoint x="-120" y="400" as="targetPoint" />
          </mxGeometry>
        </mxCell>
        <mxCell id="4U-bfrUDjUq5PcVRqzK_-36" value="0x805080" style="text;html=1;strokeColor=none;fillColor=none;align=center;verticalAlign=middle;whiteSpace=wrap;rounded=0;" parent="1" vertex="1">
          <mxGeometry x="200" y="340" width="60" height="30" as="geometry" />
        </mxCell>
        <mxCell id="4U-bfrUDjUq5PcVRqzK_-37" value="" style="endArrow=none;dashed=1;html=1;dashPattern=1 3;strokeWidth=2;rounded=0;exitX=1;exitY=0.5;exitDx=0;exitDy=0;entryX=0;entryY=0.5;entryDx=0;entryDy=0;" parent="1" source="4U-bfrUDjUq5PcVRqzK_-26" target="4U-bfrUDjUq5PcVRqzK_-36" edge="1">
          <mxGeometry width="50" height="50" relative="1" as="geometry">
            <mxPoint x="-220" y="245" as="sourcePoint" />
            <mxPoint x="-110" y="250" as="targetPoint" />
          </mxGeometry>
        </mxCell>
        <mxCell id="4U-bfrUDjUq5PcVRqzK_-38" value="" style="shape=curlyBracket;whiteSpace=wrap;html=1;rounded=1;flipH=1;labelPosition=right;verticalLabelPosition=middle;align=left;verticalAlign=middle;size=0.5;" parent="1" vertex="1">
          <mxGeometry x="130" y="350" width="20" height="350" as="geometry" />
        </mxCell>
        <mxCell id="4U-bfrUDjUq5PcVRqzK_-39" value="Application Image" style="text;html=1;strokeColor=none;fillColor=none;align=center;verticalAlign=middle;whiteSpace=wrap;rounded=0;" parent="1" vertex="1">
          <mxGeometry x="130" y="510" width="170" height="30" as="geometry" />
        </mxCell>
        <mxCell id="4U-bfrUDjUq5PcVRqzK_-40" value="Interrupt[n]" style="rounded=0;whiteSpace=wrap;html=1;" parent="1" vertex="1">
          <mxGeometry x="-20" y="500" width="120" height="20" as="geometry" />
        </mxCell>
        <mxCell id="4U-bfrUDjUq5PcVRqzK_-41" value="Type[2]" style="rounded=0;whiteSpace=wrap;html=1;" parent="1" vertex="1">
          <mxGeometry x="-20" y="40" width="120" height="20" as="geometry" />
        </mxCell>
        <mxCell id="4U-bfrUDjUq5PcVRqzK_-42" value="Length[2]" style="rounded=0;whiteSpace=wrap;html=1;" parent="1" vertex="1">
          <mxGeometry x="-20" y="60" width="120" height="20" as="geometry" />
        </mxCell>
        <mxCell id="4U-bfrUDjUq5PcVRqzK_-43" value="Value[2]" style="rounded=0;whiteSpace=wrap;html=1;" parent="1" vertex="1">
          <mxGeometry x="-20" y="80" width="120" height="20" as="geometry" />
        </mxCell>
        <mxCell id="4U-bfrUDjUq5PcVRqzK_-44" value="Type[3]" style="rounded=0;whiteSpace=wrap;html=1;" parent="1" vertex="1">
          <mxGeometry x="-20" y="100" width="120" height="20" as="geometry" />
        </mxCell>
        <mxCell id="4U-bfrUDjUq5PcVRqzK_-45" value="Length[3]" style="rounded=0;whiteSpace=wrap;html=1;" parent="1" vertex="1">
          <mxGeometry x="-20" y="120" width="120" height="20" as="geometry" />
        </mxCell>
        <mxCell id="4U-bfrUDjUq5PcVRqzK_-46" value="Value[3]" style="rounded=0;whiteSpace=wrap;html=1;" parent="1" vertex="1">
          <mxGeometry x="-20" y="140" width="120" height="20" as="geometry" />
        </mxCell>
        <mxCell id="LExkYCUsJhvmwSZ1FQ3I-1" value="0x81FFFF" style="text;html=1;strokeColor=none;fillColor=none;align=center;verticalAlign=middle;whiteSpace=wrap;rounded=0;" vertex="1" parent="1">
          <mxGeometry x="-280" y="680" width="60" height="30" as="geometry" />
        </mxCell>
        <mxCell id="LExkYCUsJhvmwSZ1FQ3I-2" value="" style="endArrow=none;dashed=1;html=1;dashPattern=1 3;strokeWidth=2;rounded=0;exitX=0;exitY=1;exitDx=0;exitDy=0;" edge="1" parent="1" source="4U-bfrUDjUq5PcVRqzK_-3" target="LExkYCUsJhvmwSZ1FQ3I-1">
          <mxGeometry width="50" height="50" relative="1" as="geometry">
            <mxPoint x="-260" y="830" as="sourcePoint" />
            <mxPoint x="-210" y="780" as="targetPoint" />
          </mxGeometry>
        </mxCell>
      </root>
    </mxGraphModel>
  </diagram>
</mxfile>
